<?xml version="1.0" encoding="utf-8"?>
<!-- Generator: Adobe Illustrator 16.0.0, SVG Export Plug-In . SVG Version: 6.00 Build 0)  -->
<!DOCTYPE svg PUBLIC "-//W3C//DTD SVG 1.1//EN" "http://www.w3.org/Graphics/SVG/1.1/DTD/svg11.dtd">
<svg version="1.1" id="Layer_1" xmlns="http://www.w3.org/2000/svg" xmlns:xlink="http://www.w3.org/1999/xlink" x="0px" y="0px"
	 width="343.334px" height="98px" viewBox="0 0 343.334 98" enable-background="new 0 0 343.334 98" xml:space="preserve">
<path fill="#32613F" d="M2.101,96.411L1.77,95.078c2.665-0.764,5.155-2.031,7.471-3.811c2.569-1.873,3.854-3.539,3.854-5
	c0-0.349-0.199-0.983-0.595-1.904c-0.396-0.922-0.595-1.682-0.595-2.286c0-1.588,0.723-3.071,2.169-4.452
	c1.446-1.382,3.075-2.07,4.886-2.07c1.146,0,2.092,0.372,2.838,1.118c0.747,0.746,1.12,1.691,1.12,2.832
	c0,4.19-3.596,8.446-10.788,12.765C8.709,94.27,5.365,95.648,2.101,96.411z M30.228,36.88c7.273-0.919,13.246-2.085,17.915-3.495
	c4.67-1.411,9.403-3.401,14.199-5.97c5.273-2.885,9.443-5.929,12.509-9.13c3.065-3.203,4.598-6.072,4.598-8.609
	c0-0.982-0.477-1.831-1.429-2.544c-0.953-0.713-2.112-1.07-3.479-1.07c-3.271,0-7.464,1.285-12.58,3.853
	c-2.477,1.269-4.971,2.742-7.48,4.422c-2.51,1.681-4.987,3.567-7.433,5.659c-2.668,2.283-5.733,5.153-9.197,8.609
	C34.548,31.934,32.007,34.693,30.228,36.88z M28.73,38.421c-9.656,10.592-14.485,19.154-14.485,25.685
	c0,3.108,1.317,5.36,3.952,6.756c1.747,0.918,3.842,1.379,6.287,1.379c3.746,0,7.54-0.711,11.381-2.133
	c3.842-1.424,7.366-3.478,10.573-6.166c2.316-1.896,4.142-3.942,5.475-6.14c1.333-2.196,2.001-4.274,2.001-6.235
	c0-1.549-0.675-2.875-2.024-3.983c-1.349-1.105-2.992-1.658-4.928-1.658c-3.047,0-6.269,0.929-9.666,2.789
	c-3.396,1.858-6.586,4.458-9.57,7.798c-1.143,1.291-2.245,2.725-3.309,4.301c-1.063,1.576-2.182,3.402-3.357,5.482l-1.162-0.285
	c1.811-4.769,4.445-8.984,7.906-12.648c5.683-6.126,11.78-9.191,18.29-9.191c2.856,0,5.151,0.722,6.882,2.165
	c1.73,1.442,2.595,3.194,2.595,5.253c0,2.253-0.721,4.582-2.166,6.992c-1.444,2.408-3.467,4.645-6.07,6.705
	c-2.823,2.251-6.028,4.121-9.614,5.609c-4.602,1.871-9.252,2.807-13.949,2.807c-5.077,0-9.012-1.442-11.805-4.327
	c-2.38-2.44-3.57-5.423-3.57-8.944c0-3.582,0.796-7.078,2.387-10.488c1.591-3.407,4.249-7.412,7.974-12.01
	c-1.522-0.348-2.903-0.704-4.14-1.07c-1.238-0.366-2.333-0.752-3.285-1.166c-2.443-1.046-4.34-2.601-5.689-4.662
	c-1.349-2.061-2.023-4.345-2.023-6.85c0-6.944,3.474-12.605,10.423-16.982c5.489-3.424,12.359-5.137,20.609-5.137
	c4.855,0,9.884,0.646,15.087,1.939l-0.618,1.323c-3.84-0.94-7.713-1.411-11.617-1.411c-6.219,0-12.075,1.141-17.565,3.421
	c-3.968,1.614-7.403,4.06-10.307,7.337c-2.904,3.277-4.355,6.753-4.355,10.426c0,1.836,0.61,3.577,1.83,5.224
	c1.219,1.646,2.938,2.976,5.155,3.989c1.996,0.887,4.578,1.616,7.747,2.187c7.593-7.745,15.408-14.379,23.444-19.902
	C55.019,8.664,65.232,4.696,74.096,4.696c2.033,0,3.678,0.46,4.933,1.38c1.255,0.92,1.882,2.141,1.882,3.664
	c0,3.456-2.272,7.197-6.815,11.225c-5.527,4.851-11.928,8.665-19.203,11.439C47.618,35.179,38.897,37.185,28.73,38.421z"/>
<path fill="#32613F" d="M79.399,65.443v-2.404c0.352,0.095,0.788,0.2,1.308,0.314c0.521,0.113,1.071,0.226,1.651,0.334
	c0.392,0.066,0.784,0.121,1.176,0.16c0.392,0.041,0.743,0.063,1.054,0.063c0.703,0,1.243-0.129,1.621-0.387
	c0.379-0.258,0.568-0.638,0.568-1.139c0-0.568-0.233-0.982-0.699-1.238c-0.466-0.258-1.2-0.388-2.2-0.388h-0.406h-0.425v-4.104
	h1.824v1.908h0.324c1.631,0,2.835,0.323,3.611,0.972c0.776,0.647,1.163,1.626,1.163,2.934c0,1.214-0.438,2.159-1.316,2.833
	c-0.877,0.676-2.126,1.014-3.746,1.014c-0.797,0-1.634-0.074-2.511-0.224c-0.459-0.067-0.945-0.153-1.458-0.263
	C80.425,65.721,79.912,65.593,79.399,65.443z M90.756,39.083h-13.43v13.553h13.429v-4.601l4.974,1.031v2.53
	c0,1.943-0.371,3.271-1.113,3.987c-0.742,0.715-2.139,1.071-4.189,1.071H77.655c-2.064,0-3.464-0.354-4.199-1.062
	c-0.735-0.709-1.103-2.041-1.103-3.997v-11.27c0-1.93,0.368-3.255,1.103-3.977c0.735-0.721,2.135-1.082,4.199-1.082h12.771
	c2.078,0,3.481,0.357,4.21,1.072c0.729,0.715,1.093,2.043,1.093,3.984v2.022l-4.974,0.789L90.756,39.083L90.756,39.083z"/>
<path fill="#32613F" d="M99.868,56.656L111.97,35.27h4.796l12.264,21.387l-5.625,0.022l-2.555-4.705h-13.521l-2.506,4.682H99.868z
	 M109.415,48.118h9.368l-4.597-8.683L109.415,48.118z"/>
<polygon fill="#32613F" points="139.697,56.656 127.331,35.27 133.025,35.265 141.695,50.674 149.931,35.267 154.889,35.27 
	143.136,56.656 "/>
<path fill="#32613F" d="M163.604,35.27v17.366h14.176V35.27h4.973v16.328c0,1.943-0.367,3.271-1.104,3.986
	c-0.735,0.715-2.135,1.072-4.198,1.072h-13.519c-2.064,0-3.464-0.354-4.199-1.063c-0.735-0.709-1.103-2.041-1.103-3.996V35.27
	H163.604z"/>
<path fill="#32613F" d="M198.406,65.443v-2.404c0.352,0.095,0.786,0.2,1.308,0.314c0.521,0.113,1.071,0.226,1.651,0.334
	c0.393,0.066,0.784,0.121,1.176,0.16c0.392,0.041,0.743,0.063,1.056,0.063c0.7,0,1.241-0.129,1.62-0.387
	c0.378-0.258,0.567-0.638,0.567-1.139c0-0.568-0.233-0.982-0.7-1.238c-0.466-0.258-1.199-0.388-2.199-0.388h-0.405h-0.426v-4.104
	h1.823v1.908h0.324c1.633,0,2.836,0.323,3.61,0.972c0.775,0.647,1.164,1.626,1.164,2.934c0,1.214-0.438,2.159-1.315,2.833
	c-0.878,0.676-2.127,1.014-3.746,1.014c-0.797,0-1.634-0.074-2.513-0.224c-0.459-0.067-0.943-0.153-1.457-0.263
	C199.431,65.721,198.919,65.593,198.406,65.443z M210.177,39h-14.01v4.601h13.348c2.092,0,3.506,0.357,4.242,1.073
	c0.735,0.715,1.104,2.044,1.104,3.987v2.935c0,1.932-0.37,3.256-1.113,3.979c-0.743,0.722-2.152,1.082-4.23,1.082H196.29
	c-2.105,0-3.523-0.356-4.252-1.07c-0.729-0.715-1.094-2.042-1.094-3.981V51.02l4.394-0.91v2.527h15.128v-4.89h-13.345
	c-2.079,0-3.483-0.358-4.213-1.072c-0.729-0.715-1.093-2.043-1.093-3.984v-2.365c0-1.928,0.367-3.251,1.104-3.973
	c0.734-0.722,2.135-1.082,4.2-1.082h12.146c1.998,0,3.381,0.344,4.15,1.031c0.77,0.688,1.152,1.907,1.152,3.66v0.445l-4.393,1.031
	V39H210.177z"/>
<path fill="#32613F" d="M227.66,52.636h16.414V39.083H227.66V52.636z M222.687,40.328c0-1.93,0.369-3.255,1.104-3.977
	c0.735-0.721,2.136-1.082,4.201-1.082h15.752c2.077,0,3.481,0.357,4.211,1.072c0.729,0.715,1.094,2.044,1.094,3.986v11.271
	c0,1.942-0.368,3.271-1.104,3.985c-0.735,0.715-2.135,1.071-4.2,1.071h-15.752c-2.065,0-3.466-0.354-4.201-1.062
	c-0.735-0.709-1.104-2.041-1.104-3.997V40.328L222.687,40.328z"/>
<path fill="#32613F" d="M263.649,26.523h2.445c0,0.515,0.081,0.954,0.244,1.319c0.161,0.365,0.396,0.677,0.708,0.935
	c0.581,0.459,1.466,0.689,2.654,0.689s2.065-0.236,2.633-0.711c0.283-0.243,0.51-0.555,0.679-0.934
	c0.17-0.378,0.254-0.812,0.254-1.299h2.403c0,0.988-0.144,1.852-0.425,2.588c-0.283,0.738-0.695,1.37-1.235,1.898
	c-0.957,0.961-2.395,1.441-4.311,1.441c-1.901,0-3.353-0.48-4.351-1.441c-0.525-0.514-0.932-1.123-1.214-1.827
	C263.812,28.385,263.649,27.498,263.649,26.523z M277.493,39.083H261.95v13.553h15.543V47.87h-8.124v-3.647h12.974v7.371
	c0,1.943-0.367,3.274-1.104,3.989c-0.735,0.716-2.137,1.073-4.201,1.073h-14.757c-2.065,0-3.466-0.354-4.201-1.063
	c-0.735-0.709-1.104-2.041-1.104-3.996V40.327c0-1.93,0.369-3.255,1.104-3.977c0.735-0.721,2.136-1.082,4.201-1.082h14.757
	c2.052,0,3.447,0.351,4.189,1.053c0.742,0.702,1.114,1.971,1.114,3.808v0.486l-4.85,0.871L277.493,39.083L277.493,39.083z"/>
<polygon fill="#32613F" points="290.79,56.656 290.79,35.27 295.765,35.27 295.765,52.636 311.811,52.636 311.811,56.656 "/>
<path fill="#32613F" d="M321.256,35.27v17.366h14.176V35.27h4.975v16.328c0,1.943-0.368,3.271-1.104,3.986
	c-0.735,0.715-2.135,1.072-4.199,1.072h-13.519c-2.064,0-3.464-0.354-4.199-1.063c-0.733-0.709-1.103-2.041-1.103-3.996V35.27
	H321.256z"/>
<path fill="#32613F" d="M145.616,79.539V68.846h9.166c0.843,0,1.453,0.164,1.831,0.491c0.378,0.327,0.566,0.854,0.566,1.584v1.306
	c0,0.506-0.155,0.912-0.465,1.219c-0.311,0.308-0.769,0.502-1.376,0.582c0.607,0.08,1.08,0.3,1.417,0.656
	c0.338,0.358,0.507,0.823,0.507,1.396v1.365c0,0.715-0.26,1.242-0.779,1.582c-0.52,0.342-1.309,0.512-2.368,0.512H145.616z
	 M153.738,74.896h-5.677v2.715h5.677c0.458,0,0.773-0.071,0.946-0.217c0.172-0.146,0.258-0.392,0.258-0.742v-0.807
	c0-0.351-0.083-0.596-0.248-0.736C154.529,74.968,154.21,74.896,153.738,74.896z M153.737,70.587h-5.675v2.549h5.675
	c0.432,0,0.73-0.058,0.896-0.172c0.165-0.114,0.248-0.313,0.248-0.597v-1.012c0-0.271-0.083-0.467-0.248-0.588
	C154.467,70.646,154.168,70.587,153.737,70.587z"/>
<path fill="#32613F" d="M162.225,67.271v-2.426h2.176v2.426H162.225z M162.059,79.539V68.846h2.487v10.693H162.059z"/>
<path fill="#32613F" d="M170.027,79.539V68.846h9.166c0.845,0,1.455,0.164,1.832,0.491s0.566,0.854,0.566,1.584v1.306
	c0,0.506-0.156,0.912-0.466,1.219c-0.312,0.308-0.771,0.502-1.376,0.582c0.605,0.08,1.079,0.3,1.417,0.656
	c0.339,0.358,0.507,0.823,0.507,1.396v1.365c0,0.715-0.26,1.242-0.779,1.582c-0.519,0.342-1.309,0.512-2.367,0.512H170.027z
	 M178.147,74.896h-5.676v2.715h5.676c0.459,0,0.774-0.071,0.946-0.217c0.173-0.146,0.259-0.392,0.259-0.742v-0.807
	c0-0.351-0.082-0.596-0.248-0.736C178.938,74.968,178.62,74.896,178.147,74.896z M178.147,70.587h-5.676v2.549h5.676
	c0.433,0,0.729-0.058,0.896-0.172s0.248-0.313,0.248-0.597v-1.012c0-0.271-0.082-0.467-0.248-0.588S178.579,70.587,178.147,70.587z"
	/>
<polygon fill="#32613F" points="186.47,79.539 186.47,68.846 197.415,68.846 197.415,70.67 188.956,70.67 188.956,73.053 
	193.894,73.053 193.894,74.877 188.956,74.877 188.956,77.529 197.517,77.529 197.517,79.539 "/>
<path fill="#32613F" d="M202.108,79.539V68.846h9.146c0.85,0,1.465,0.164,1.848,0.491c0.381,0.326,0.57,0.854,0.57,1.581v2.508
	c0,0.715-0.191,1.238-0.576,1.572c-0.386,0.334-0.998,0.5-1.843,0.5h-1.396l4.939,4.041l-3.568-0.002l-4.314-4.038l-2.359-0.001
	v4.041H202.108z M210.146,70.689h-5.592v2.984h5.592c0.424,0,0.719-0.063,0.881-0.183c0.16-0.122,0.242-0.345,0.242-0.671v-1.288
	c0-0.298-0.082-0.513-0.242-0.646C210.864,70.757,210.569,70.689,210.146,70.689z"/>
<polygon fill="#32613F" points="218.722,79.539 218.722,68.846 221.207,68.846 221.207,77.529 229.231,77.529 229.231,79.539 "/>
<polygon fill="#32613F" points="232.875,79.539 232.875,68.846 243.821,68.846 243.821,70.67 235.362,70.67 235.362,73.053 
	240.3,73.053 240.3,74.877 235.362,74.877 235.362,77.529 243.922,77.529 243.922,79.539 "/>
<path fill="#32613F" d="M248.515,79.539V68.846h9.146c0.85,0,1.465,0.164,1.846,0.491c0.382,0.326,0.572,0.854,0.572,1.581v2.508
	c0,0.715-0.192,1.238-0.577,1.572c-0.384,0.334-0.998,0.5-1.841,0.5h-1.396l4.938,4.041l-3.57-0.002l-4.313-4.038l-2.36-0.001v4.041
	H248.515z M256.552,70.689h-5.593v2.984h5.593c0.426,0,0.719-0.063,0.879-0.183c0.162-0.122,0.243-0.345,0.243-0.671v-1.288
	c0-0.298-0.081-0.513-0.243-0.646C257.271,70.757,256.978,70.689,256.552,70.689z"/>
<path fill="#32613F" d="M265.293,67.271v-2.426h2.176v2.426H265.293z M265.127,79.539V68.846h2.485v10.693H265.127z"/>
</svg>
